:FULLY-SPECIFIED
:FORCE-ALL-JOINTS-BE-3DOF
:DEGREES
645
root 5.60737 16.4557 -2.81385 10.8199 24.9251 -3.81575
lfemur -12.6804 16.5839 -22.9393
ltibia 29.2278 0 0
lfoot -36.4007 12.9093 0
ltoes 28.5262 0 0
rfemur -49.0728 -20.4126 20.8095
rtibia 63.3263 0 0
rfoot 5.20932 -0.756509 0
rtoes -2.96775 0 0
lowerback -1.2608 -3.19654 -3.52292
upperback -2.55568 -4.23265 2.02648
thorax -1.4947 -2.04157 4.04181
lowerneck -10.2886 -7.66466 0.793881
upperneck 12.6068 -11.0451 4.13282
head 5.73254 -5.06048 0.312945
lclavicle -3.00524e-14 -2.71231e-14 0
lhumerus -33.2505 -59.7161 113.242
lradius 70.6316 0 0
lwrist 21.3279 0 0
lhand -8.68757 -0.0847751 0
lfingers 7.12502 0 0
lthumb 17.2465 29.162 0
rclavicle -3.00524e-14 -2.71231e-14 0
rhumerus -9.24018 5.80446 -66.2556
rradius 90.0584 0 0
rwrist -40.3065 0 0
rhand -30.3116 -32.3979 0
rfingers 7.12502 0 0
rthumb -3.61837 -782.348 0
646
root 5.59515 16.4291 -2.76028 11.2711 23.7809 -3.53628
lfemur -13.0023 17.1944 -23.4011
ltibia 29.6498 0 0
lfoot -36.6162 12.9992 0
ltoes 27.9687 0 0
rfemur -50.1513 -21.1717 21.9969
rtibia 63.6591 0 0
rfoot 4.31227 -0.815102 0
rtoes -2.53752 0 0
lowerback -1.18587 -3.24627 -3.72517
upperback -2.48674 -4.30409 1.83877
thorax -1.45945 -2.07777 3.96247
lowerneck -10.233 -7.66103 0.683437
upperneck 11.938 -11.0121 4.39296
head 5.5543 -5.05509 0.436543
lclavicle -3.02302e-14 -2.55523e-14 0
lhumerus -34.1922 -60.4522 114.328
lradius 70.6823 0 0
lwrist 21.574 0 0
lhand -8.39399 0.212465 0
lfingers 7.12502 0 0
lthumb 17.5289 29.4321 0
rclavicle -3.02302e-14 -2.55523e-14 0
rhumerus -11.3851 4.99973 -67.1471
rradius 88.026 0 0
rwrist -38.6392 0 0
rhand -30.2352 -33.4881 0
rfingers 7.12502 0 0
rthumb -3.54459 -783.44 0
647
root 5.58293 16.4026 -2.70672 11.8716 22.2018 -3.16858
lfemur -13.4251 17.9618 -23.9743
ltibia 30.2643 0 0
lfoot -36.8019 13.0453 0
ltoes 27.2364 0 0
rfemur -51.478 -22.1142 23.4777
rtibia 64.0853 0 0
rfoot 3.12393 -0.973248 0
rtoes -1.98863 0 0
lowerback -1.10308 -3.31554 -3.9666
upperback -2.40603 -4.40243 1.60532
thorax -1.41548 -2.1276 3.85768
lowerneck -10.1684 -7.64474 0.548343
upperneck 11.076 -10.9539 4.71166
head 5.32373 -5.04077 0.590158
lclavicle -3.06324e-14 -2.36365e-14 0
lhumerus -35.323 -61.4336 115.659
lradius 70.8135 0 0
lwrist 21.8965 0 0
lhand -8.03197 0.580911 0
lfingers 7.12502 0 0
lthumb 17.8771 29.7671 0
rclavicle -3.06324e-14 -2.36365e-14 0
rhumerus -14.2195 3.96085 -68.206
rradius 85.3786 0 0
rwrist -36.4786 0 0
rhand -30.1414 -34.903 0
rfingers 7.12502 0 0
rthumb -3.45402 -784.856 0
648
root 5.57071 16.376 -2.65315 12.6403 20.1314 -2.70191
lfemur -13.9587 18.9011 -24.6705
ltibia 31.0916 0 0
lfoot -36.9529 13.0386 0
ltoes 26.3124 0 0
rfemur -53.0773 -23.2598 25.2809
rtibia 64.6155 0 0
rfoot 1.61122 -1.2505 0
rtoes -1.30814 0 0
lowerback -1.013 -3.40658 -4.25067
upperback -2.31306 -4.53069 1.32159
thorax -1.36187 -2.19258 3.7246
lowerneck -10.0944 -7.61372 0.386412
upperneck 9.99932 -10.8666 5.09475
head 5.03503 -5.01613 0.776867
lclavicle -3.13149e-14 -2.13493e-14 0
lhumerus -36.6634 -62.6917 117.264
lradius 71.0387 0 0
lwrist 22.3042 0 0
lhand -7.59407 1.02783 0
lfingers 7.12502 0 0
lthumb 18.2983 30.1735 0
rclavicle -3.13149e-14 -2.13493e-14 0
rhumerus -17.8269 2.66273 -69.4469
rradius 82.0424 0 0
rwrist -33.7667 0 0
rhand -30.0292 -36.6805 0
rfingers 7.12502 0 0
rthumb -3.34565 -786.634 0
649
root 5.55849 16.3494 -2.59959 13.5965 17.5135 -2.12556
lfemur -14.6132 20.0271 -25.5016
ltibia 32.152 0 0
lfoot -37.0644 12.9699 0
ltoes 25.1798 0 0
rfemur -54.9739 -24.6279 27.4354
rtibia 65.2599 0 0
rfoot -0.258976 -1.66641 0
rtoes -0.483111 0 0
lowerback -0.916205 -3.52164 -4.58081
upperback -2.20735 -4.69188 0.983021
thorax -1.29774 -2.27424 3.56037
lowerneck -10.0105 -7.56591 0.195458
upperneck 8.68655 -10.7467 5.54805
head 4.68237 -4.97973 0.999749
lclavicle -3.23337e-14 -1.86638e-14 0
lhumerus -38.2343 -64.2579 119.173
lradius 71.3715 0 0
lwrist 22.8055 0 0
lhand -7.07285 1.56049 0
lfingers 7.12502 0 0
lthumb 18.7996 30.6578 0
rclavicle -3.23337e-14 -1.86638e-14 0
rhumerus -22.2908 1.08028 -70.8844
rradius 77.9437 0 0
rwrist -30.4457 0 0
rhand -29.8975 -38.8582 0
rfingers 7.12502 0 0
rthumb -3.21849 -788.814 0
650
root 5.54627 16.3228 -2.54602 14.7593 14.2921 -1.4288
lfemur -15.3985 21.3546 -26.4792
ltibia 33.4659 0 0
lfoot -37.1316 12.8302 0
ltoes 23.8214 0 0
rfemur -57.1921 -26.2381 29.9703
rtibia 66.029 0 0
rfoot -2.51973 -2.24053 0
rtoes 0.499379 0 0
lowerback -0.813252 -3.66297 -4.96048
upperback -2.08842 -4.88902 0.585073
thorax -1.2222 -2.37408 3.36216
lowerneck -9.91649 -7.49922 -0.0267047
upperneck 7.11618 -10.5903 6.07739
head 4.25993 -4.93017 1.26188
lclavicle -3.37448e-14 -1.55534e-14 0
lhumerus -40.0563 -66.1636 121.413
lradius 71.8254 0 0
lwrist 23.409 0 0
lhand -6.4609 2.18615 0
lfingers 7.12502 0 0
lthumb 19.3882 31.2268 0
rclavicle -3.37448e-14 -1.55534e-14 0
rhumerus -27.6947 -0.811559 -72.533
rradius 73.0086 0 0
rwrist -26.4578 0 0
rhand -29.7453 -41.4738 0
rfingers 7.12502 0 0
rthumb -3.07152 -791.431 0
651
root 5.53405 16.2962 -2.49246 16.1476 10.4108 -0.60091
lfemur -16.3247 22.8985 -27.6151
ltibia 35.0535 0 0
lfoot -37.1498 12.6101 0
ltoes 22.2203 0 0
rfemur -59.7564 -28.11 32.9146
rtibia 66.9333 0 0
rfoot -5.20415 -2.9924 0
rtoes 1.65227 0 0
lowerback -0.704707 -3.83279 -5.39312
upperback -1.95578 -5.12514 0.123194
thorax -1.13436 -2.49364 3.12711
lowerneck -9.81193 -7.41159 -0.282263
upperneck 5.26672 -10.3939 6.68858
head 3.76191 -4.86603 1.56634
lclavicle -3.56042e-14 -1.19915e-14 0
lhumerus -42.1502 -68.4403 124.016
lradius 72.4139 0 0
lwrist 24.1235 0 0
lhand -5.75078 2.91209 0
lfingers 7.12502 0 0
lthumb 20.0712 31.8868 0
rclavicle -3.56042e-14 -1.19915e-14 0
rhumerus -34.1224 -3.03788 -74.4072
rradius 67.1633 0 0
rwrist -21.7451 0 0
rhand -29.5716 -44.5651 0
rfingers 7.12502 0 0
rthumb -2.90374 -794.525 0
652
root 5.52183 16.2696 -2.43889 17.7807 5.81363 0.36883
lfemur -17.4017 24.6737 -28.9211
ltibia 36.9351 0 0
lfoot -37.114 12.3006 0
ltoes 20.3595 0 0
rfemur -62.6914 -30.2631 36.2973
rtibia 67.9832 0 0
rfoot -8.34533 -3.94159 0
rtoes 2.98849 0 0
lowerback -0.591138 -4.03337 -5.88217
upperback -1.80897 -5.40325 -0.407164
thorax -1.03332 -2.63444 2.85238
lowerneck -9.69647 -7.30093 -0.573404
upperneck 3.11671 -10.1537 7.38745
head 3.18248 -4.7859 1.91621
lclavicle -3.79679e-14 -7.95139e-15 0
lhumerus -44.5367 -71.1192 127.009
lradius 73.1505 0 0
lwrist 24.9573 0 0
lhand -4.93506 3.74556 0
lfingers 7.12502 0 0
lthumb 20.8558 32.6446 0
rclavicle -3.79679e-14 -7.95139e-15 0
rhumerus -41.6572 -5.62375 -76.5216
rradius 60.334 0 0
rwrist -16.2497 0 0
rhand -29.3753 -48.1698 0
rfingers 7.12502 0 0
rthumb -2.71414 -798.132 0
653
root 5.51646 16.2518 -2.31548 17.9509 5.01609 0.477313
lfemur -17.6618 24.931 -28.9922
ltibia 37.7724 0 0
lfoot -36.4663 12.0071 0
ltoes 19.8113 0 0
rfemur -62.794 -30.3049 36.5761
rtibia 68.1492 0 0
rfoot -8.96976 -4.12008 0
rtoes 3.1215 0 0
lowerback -0.588882 -4.09716 -5.84752
upperback -1.79748 -5.48888 -0.436528
thorax -1.02491 -2.6784 2.80231
lowerneck -9.69733 -7.24109 -0.589067
upperneck 2.85667 -10.0598 7.3826
head 3.10594 -4.74658 1.92937
lclavicle -3.73344e-14 -7.53484e-15 0
lhumerus -44.1986 -71.4501 126.724
lradius 73.4477 0 0
lwrist 25.0929 0 0
lhand -4.9482 3.77933 0
lfingers 7.12502 0 0
lthumb 20.8431 32.6794 0
rclavicle -3.73344e-14 -7.53484e-15 0
rhumerus -42.6394 -6.0223 -76.3707
rradius 59.6496 0 0
rwrist -15.7266 0 0
rhand -29.3174 -48.5707 0
rfingers 7.12502 0 0
rthumb -2.65825 -798.534 0
